<svg xmlns="http://www.w3.org/2000/svg" viewBox="0 0 32 32">
  <defs>
    <linearGradient id="g" x1="0" y1="0" x2="1" y2="1">
      <stop offset="0%" stop-color="#f43f5e"/>
      <stop offset="100%" stop-color="#db2777"/>
    </linearGradient>
  </defs>
  <rect width="32" height="32" rx="8" fill="url(#g)"/>
  <path d="M16 7c-1.1 0-2 .9-2 2 0 .4.1.7.3 1-1.4.7-2.3 2-2.3 3.5 0 .8.3 1.5.8 2.1-.8.3-1.5.8-2 1.4-.7.9-1 2-.8 3.1.4 2.2 2.3 3.9 4.5 3.9h3c2.2 0 4.1-1.7 4.5-3.9.2-1.1-.1-2.2-.8-3.1-.5-.6-1.2-1.1-2-1.4.5-.6.8-1.3.8-2.1 0-1.6-.9-2.9-2.3-3.5.2-.3.3-.6.3-1 0-1.1-.9-2-2-2z" fill="white" opacity="0.9"/>
  <circle cx="14.5" cy="13" r="1.2" fill="url(#g)"/>
  <circle cx="17.5" cy="13" r="1.2" fill="url(#g)"/>
  <path d="M14 17.5c0 0 1 1.5 2 1.5s2-1.5 2-1.5" stroke="white" stroke-width="1.2" fill="none" stroke-linecap="round" opacity="0.7"/>
</svg>
